HIERARCHY
ROOT Hips
{
	OFFSET 62.148300 -23.092014 96.996902
	CHANNELS 6 Xposition Yposition Zposition Xrotation Yrotation Zrotation
	JOINT spine
	{
		OFFSET 0.000000 -0.458069 7.965675
		CHANNELS 3 Xrotation Yrotation Zrotation
		JOINT spine1
		{
			OFFSET 0.000000 -0.000002 10.243103
			CHANNELS 3 Xrotation Yrotation Zrotation
			JOINT spine2
			{
				OFFSET 0.000000 -0.000002 9.814751
				CHANNELS 3 Xrotation Yrotation Zrotation
				JOINT Neck
				{
					OFFSET 0.000000 -1.201384 25.198608
					CHANNELS 3 Xrotation Yrotation Zrotation
					JOINT Head
					{
						OFFSET 0.000000 0.000000 7.613144
						CHANNELS 3 Xrotation Yrotation Zrotation
						End Site
						{
							OFFSET 0.000000 6.077326 18.428101
						}
					}
				}
				JOINT RightShoulder
				{
					OFFSET -4.132698 0.575449 10.599213
					CHANNELS 3 Xrotation Yrotation Zrotation
					JOINT RightArm
					{
						OFFSET 0.000000 -0.000002 13.901794
						CHANNELS 3 Xrotation Yrotation Zrotation
						JOINT RightArmRoll
						{
							OFFSET 0.000000 0.000000 7.017883
							CHANNELS 3 Xrotation Yrotation Zrotation
							JOINT RightForeArm
							{
								OFFSET 0.000000 -0.000004 20.440598
								CHANNELS 3 Xrotation Yrotation Zrotation
								JOINT RightForeArmRoll
								{
									OFFSET 0.000000 -0.000002 7.875153
									CHANNELS 3 Xrotation Yrotation Zrotation
									JOINT RightHand
									{
										OFFSET 0.000000 -0.000002 15.803696
										CHANNELS 3 Xrotation Yrotation Zrotation
										End Site
										{
											OFFSET 0.000000 0.000000 0.100006
										}
									}
								}
							}
						}
					}
				}
				JOINT LeftShoulder
				{
					OFFSET 4.132698 0.575449 10.599213
					CHANNELS 3 Xrotation Yrotation Zrotation
					JOINT LeftArm
					{
						OFFSET 0.000000 -0.000002 13.901794
						CHANNELS 3 Xrotation Yrotation Zrotation
						JOINT LeftArmRoll
						{
							OFFSET 0.000000 0.000000 7.017883
							CHANNELS 3 Xrotation Yrotation Zrotation
							JOINT LeftForeArm
							{
								OFFSET 0.000000 -0.000004 20.440598
								CHANNELS 3 Xrotation Yrotation Zrotation
								JOINT LeftForeArmRoll
								{
									OFFSET 0.000000 -0.000002 7.875153
									CHANNELS 3 Xrotation Yrotation Zrotation
									JOINT LeftHand
									{
										OFFSET 0.000000 -0.000002 15.803696
										CHANNELS 3 Xrotation Yrotation Zrotation
										End Site
										{
											OFFSET 0.000000 0.000000 0.100006
										}
									}
								}
							}
						}
					}
				}
			}
		}
	}
	JOINT RightUpLeg
	{
		OFFSET -7.060478 1.086100 -1.294701
		CHANNELS 3 Xrotation Yrotation Zrotation
		JOINT RightUpLegRoll
		{
			OFFSET 0.000000 -0.000004 18.530800
			CHANNELS 3 Xrotation Yrotation Zrotation
			JOINT RightLeg
			{
				OFFSET 0.000000 0.000004 -22.947601
				CHANNELS 3 Xrotation Yrotation Zrotation
				JOINT RightLegRoll
				{
					OFFSET 0.000000 -0.000004 23.022598
					CHANNELS 3 Xrotation Yrotation Zrotation
					JOINT RightFoot
					{
						OFFSET 0.000000 -0.000002 19.162506
						CHANNELS 3 Xrotation Yrotation Zrotation
						JOINT RightToeBase
						{
							OFFSET 0.000000 -0.000004 16.018799
							CHANNELS 3 Xrotation Yrotation Zrotation
							End Site
							{
								OFFSET 0.006790 0.894205 7.757828
							}
						}
					}
				}
			}
		}
	}
	JOINT LeftUpLeg
	{
		OFFSET 7.060478 1.086100 -1.294701
		CHANNELS 3 Xrotation Yrotation Zrotation
		JOINT LeftUpLegRoll
		{
			OFFSET 0.000000 -0.000004 18.530899
			CHANNELS 3 Xrotation Yrotation Zrotation
			JOINT LeftLeg
			{
				OFFSET 0.000000 -0.000004 22.947502
				CHANNELS 3 Xrotation Yrotation Zrotation
				JOINT LeftLegRoll
				{
					OFFSET 0.000000 -0.000004 23.235504
					CHANNELS 3 Xrotation Yrotation Zrotation
					JOINT LeftFoot
					{
						OFFSET 0.000000 -0.000002 18.949600
						CHANNELS 3 Xrotation Yrotation Zrotation
						JOINT LeftToeBase
						{
							OFFSET 0.000000 -0.000004 16.018799
							CHANNELS 3 Xrotation Yrotation Zrotation
							End Site
							{
								OFFSET -0.030426 0.894207 7.757828
							}
						}
					}
				}
			}
		}
	}
}
MOTION
Frames: 10
Frame Time: 0.041667
62.278702 -21.902420 97.092102 -7.706645 -1.209172 1.014533 -0.058363 0.291769 -0.024428 3.885245 0.600817 -0.050002 5.530364 0.600184 -0.057191 6.241000 6.544653 0.466277 23.129117 -9.789957 2.862487 -5.129616 -63.961621 -6.507267 -54.859055 -145.956170 -59.652195 0.000003 -0.000001 0.000004 81.353120 -2.906248 -1.848966 0.000002 -0.000000 -3.003449 -5.000198 -7.999094 0.000111 -10.221729 62.294085 12.259093 -59.545350 143.027412 74.137858 0.000003 -0.000003 -0.000001 81.294715 2.934578 2.048812 -0.000007 -0.000007 3.002349 -5.000203 7.998717 -0.000153 7.153642 -174.217048 5.916752 -179.999991 0.000005 -1.298004 172.878344 -1.444772 -0.560490 0.000004 -0.000000 0.129241 69.642344 6.936517 1.956007 25.456952 -7.355614 0.000002 4.341419 174.909574 -2.073707 -0.000020 -0.000004 -1.250830 -6.469063 1.807624 0.249280 -0.000001 0.000003 -0.097689 69.401422 -6.938628 -1.969969 25.456948 7.355623 -0.000005 
62.283501 -21.905621 97.087799 -7.715797 -1.218956 1.019401 -0.057089 0.293761 -0.025825 3.888228 0.605490 -0.053157 5.533339 0.604817 -0.060402 6.290159 6.509804 0.468523 23.204046 -9.732660 2.860283 -5.158681 -63.953670 -6.539889 -54.739725 -145.917129 -60.424327 0.000004 -0.000001 0.000003 81.486138 -3.006721 -1.857556 0.000001 0.000001 -3.003431 -5.000192 -7.999096 0.000112 -10.136447 62.308865 12.161024 -59.473572 143.144864 74.549029 0.000002 -0.000003 -0.000002 81.418321 2.981212 2.069830 -0.000006 -0.000008 3.002330 -5.000203 7.998718 -0.000152 7.157252 -174.204207 5.927526 -179.999991 0.000005 -1.298004 172.864247 -1.446707 -0.561094 0.000004 0.000000 0.129183 69.641708 6.936528 1.956048 25.456953 -7.355615 0.000003 4.357595 174.922647 -2.066388 -0.000020 -0.000004 -1.251020 -6.457672 1.806145 0.248669 -0.000001 0.000004 -0.097419 69.396873 -6.938645 -1.970055 25.456950 7.355624 -0.000005 
62.313000 -21.896414 97.088097 -7.724722 -1.227393 1.023694 -0.055914 0.295742 -0.027015 3.890921 0.609781 -0.056058 5.536034 0.609072 -0.063356 6.343102 6.473985 0.470444 23.273161 -9.675080 2.857363 -5.186901 -63.946540 -6.571602 -54.638938 -145.877404 -61.230098 0.000006 -0.000002 0.000003 81.611390 -3.107391 -1.864540 0.000000 0.000001 -3.003411 -5.000195 -7.999093 0.000112 -10.050009 62.323980 12.061674 -59.412469 143.255145 74.994951 0.000005 -0.000002 -0.000002 81.549884 3.029601 2.092468 -0.000009 -0.000007 3.002311 -5.000199 7.998717 -0.000151 7.161050 -174.193320 5.936244 -179.999991 0.000005 -1.298004 172.850942 -1.446664 -0.562426 0.000004 -0.000000 0.129155 69.641080 6.936542 1.956090 25.456950 -7.355615 0.000001 4.373552 174.933726 -2.060726 -0.000020 -0.000004 -1.251200 -6.446613 1.805141 0.248177 -0.000001 0.000004 -0.097113 69.392236 -6.938685 -1.970055 25.456952 7.355622 -0.000005 
62.310001 -21.901617 97.092308 -7.733448 -1.234255 1.027412 -0.054847 0.297704 -0.027972 3.893294 0.613626 -0.058670 5.538419 0.612882 -0.066016 6.400267 6.437090 0.471990 23.335635 -9.617275 2.853660 -5.214014 -63.940160 -6.602124 -54.557181 -145.839005 -62.069624 0.000002 -0.000002 0.000004 81.728158 -3.208289 -1.869558 0.000006 -0.000001 -3.003390 -5.000198 -7.999092 0.000112 -9.962470 62.339505 11.961079 -59.362841 143.356901 75.480263 0.000004 -0.000003 -0.000001 81.691159 3.080030 2.116874 -0.000006 -0.000008 3.002291 -5.000199 7.998718 -0.000153 7.165122 -174.185451 5.942487 -179.999991 0.000005 -1.299001 172.838675 -1.445636 -0.562612 0.000003 -0.000000 0.129159 69.640233 6.936545 1.956245 25.456953 -7.355614 0.000001 4.389261 174.941813 -2.057072 -0.000020 -0.000004 -1.251360 -6.435957 1.804692 0.247821 -0.000001 0.000003 -0.096765 69.387482 -6.938726 -1.970059 25.456950 7.355620 -0.000004 
62.315498 -21.903313 97.090607 -7.741842 -1.239551 1.030368 -0.053919 0.299666 -0.028682 3.895316 0.616981 -0.061061 5.540442 0.616207 -0.068451 6.462852 6.398848 0.473520 23.391110 -9.558157 2.849236 -5.240378 -63.934594 -6.631843 -54.496966 -145.798803 -62.978770 0.000004 -0.000002 0.000003 81.838664 -3.310521 -1.874547 0.000002 -0.000002 -3.003369 -5.000197 -7.999097 0.000112 -9.874780 62.356909 11.860472 -59.326975 143.448972 76.016085 0.000007 -0.000002 -0.000002 81.843220 3.133042 2.144048 -0.000006 -0.000007 3.002272 -5.000201 7.998717 -0.000154 7.169155 -174.180547 5.946327 -179.999991 0.000005 -1.299000 172.827173 -1.443621 -0.563651 0.000003 -0.000000 0.129197 69.639386 6.936549 1.956298 25.456950 -7.355616 0.000001 4.404944 174.948889 -2.055240 -0.000020 -0.000004 -1.251490 -6.425111 1.804790 0.247620 -0.000001 0.000004 -0.096360 69.382414 -6.938749 -1.970181 25.456950 7.355621 -0.000004 
62.322701 -21.905611 97.094597 -7.749878 -1.243531 1.032439 -0.053133 0.301649 -0.029165 3.897019 0.619895 -0.063327 5.542135 0.619092 -0.070755 6.531199 6.359164 0.475350 23.440453 -9.497113 2.844378 -5.266443 -63.929437 -6.661276 -54.456531 -145.752699 -63.980151 0.000004 -0.000003 0.000004 81.945584 -3.414783 -1.880788 0.000001 0.000002 -3.003351 -5.000195 -7.999095 0.000110 -9.787731 62.377222 11.760840 -59.305085 143.531631 76.605127 0.000003 -0.000002 -0.000001 82.004972 3.188639 2.174492 -0.000005 -0.000006 3.002250 -5.000200 7.998714 -0.000152 7.172824 -174.177597 5.948222 -179.999991 0.000005 -1.299001 172.816094 -1.439614 -0.563429 0.000003 -0.000000 0.129269 69.638341 6.936580 1.956367 25.456952 -7.355613 0.000001 4.420849 174.952987 -2.055043 -0.000020 -0.000005 -1.251600 -6.413517 1.805318 0.247568 -0.000001 0.000004 -0.095892 69.376718 -6.938779 -1.970244 25.456952 7.355622 -0.000005 
62.291000 -21.916117 97.095596 -7.757586 -1.246362 1.033683 -0.052468 0.303651 -0.029446 3.898441 0.622434 -0.065463 5.543557 0.621602 -0.072925 6.604512 6.318235 0.477433 23.484402 -9.434458 2.839115 -5.292296 -63.924881 -6.690503 -54.430280 -145.700735 -65.055646 0.000006 -0.000002 0.000004 82.048651 -3.520554 -1.887958 0.000002 0.000001 -3.003319 -5.000197 -7.999094 0.000112 -9.700995 62.400082 11.661757 -59.294744 143.605001 77.239426 0.000003 -0.000003 0.000002 82.174559 3.246540 2.207712 -0.000008 -0.000008 3.002240 -5.000202 7.998715 -0.000155 7.176172 -174.176668 5.948366 -179.999991 0.000005 -1.299001 172.805343 -1.435610 -0.564209 0.000004 -0.000000 0.129370 69.637378 6.936579 1.956429 25.456953 -7.355613 0.000002 4.436889 174.956074 -2.056153 -0.000020 -0.000005 -1.251680 -6.401364 1.806225 0.247646 -0.000001 0.000004 -0.095371 69.370482 -6.938821 -1.970341 25.456948 7.355622 -0.000005 
62.302700 -21.917316 97.098206 -7.765012 -1.248192 1.034159 -0.051905 0.305670 -0.029553 3.899632 0.624662 -0.067469 5.544750 0.623805 -0.074962 6.681990 6.276242 0.479681 23.523482 -9.370427 2.833395 -5.317918 -63.920838 -6.719530 -54.412145 -145.643634 -66.185571 0.000007 -0.000001 0.000005 82.147273 -3.627432 -1.895757 0.000000 -0.000000 -3.003298 -5.000195 -7.999094 0.000113 -9.614066 62.424705 11.562606 -59.293057 143.669915 77.910424 0.000001 -0.000002 0.000001 82.350368 3.306360 2.243011 -0.000008 -0.000009 3.002221 -5.000201 7.998716 -0.000151 7.179222 -174.177679 5.946932 -179.999991 0.000005 -1.299001 172.794920 -1.430616 -0.564841 0.000004 -0.000000 0.129496 69.636333 6.936612 1.956499 25.456952 -7.355615 0.000001 4.453025 174.958192 -2.058387 -0.000019 -0.000004 -1.251760 -6.388831 1.807442 0.247829 -0.000001 0.000004 -0.094805 69.364041 -6.938854 -1.970451 25.456952 7.355621 -0.000005 
62.288799 -21.919220 97.076401 -7.772206 -1.249202 1.033952 -0.051418 0.307705 -0.029510 3.900625 0.626646 -0.069343 5.545742 0.625766 -0.076863 6.762816 6.233363 0.482007 23.558441 -9.305339 2.827238 -5.343388 -63.917593 -6.748445 -54.399144 -145.580387 -67.355043 0.000004 -0.000003 0.000003 82.241201 -3.734915 -1.903664 0.000000 -0.000000 -3.003279 -5.000195 -7.999096 0.000112 -9.526635 62.450612 11.462986 -59.297906 143.726755 78.610266 0.000004 -0.000002 0.000001 82.530590 3.367744 2.279996 -0.000005 -0.000006 3.002200 -5.000199 7.998717 -0.000150 7.182053 -174.179714 5.944208 -179.999991 0.000005 -1.299001 172.784730 -1.424634 -0.565339 0.000004 -0.000000 0.129645 69.635384 6.936612 1.956459 25.456953 -7.355614 0.000002 4.469178 174.958287 -2.061646 -0.000020 -0.000004 -1.251810 -6.376101 1.808928 0.248099 -0.000001 0.000004 -0.094203 69.357374 -6.938876 -1.970472 25.456950 7.355622 -0.000006 
62.290298 -21.927813 97.083008 -7.779203 -1.249538 1.033121 -0.050995 0.309753 -0.029344 3.901486 0.628452 -0.071082 5.546594 0.627548 -0.078629 6.846201 6.189786 0.484356 23.589923 -9.239599 2.820675 -5.368720 -63.914950 -6.777256 -54.386327 -145.512467 -68.544923 0.000004 -0.000001 0.000004 82.330042 -3.842486 -1.911372 0.000004 -0.000000 -3.003260 -5.000193 -7.999094 0.000112 -9.438313 62.477222 11.362384 -59.307380 143.776042 79.331438 0.000002 -0.000002 -0.000002 82.713714 3.430216 2.318169 -0.000005 -0.000003 3.002181 -5.000201 7.998716 -0.000150 7.184687 -174.182719 5.940394 -179.999991 0.000005 -1.299001 172.774771 -1.418654 -0.565830 0.000004 -0.000000 0.129814 69.634427 6.936612 1.956519 25.456953 -7.355616 0.000001 4.485290 174.958410 -2.065593 -0.000020 -0.000004 -1.251850 -6.363350 1.810624 0.248435 -0.000001 0.000004 -0.093576 69.350524 -6.938920 -1.970609 25.456953 7.355622 -0.000006 
